<svg aria-hidden="true" style="position: absolute; width: 0; height: 0; overflow: hidden;" version="1.1" xmlns="http://www.w3.org/2000/svg" xmlns:xlink="http://www.w3.org/1999/xlink">
<defs>
<symbol id="icon-favorite-add" viewBox="0 0 32 32">
<path fill="#e44848" style="fill: var(--color1, #e44848); stroke: var(--color1, #e44848)" stroke="#e44848" stroke-linejoin="round" stroke-linecap="round" stroke-miterlimit="4" stroke-width="3.0667" d="M27.787 6.147c-1.327-1.328-3.161-2.149-5.187-2.149s-3.859 0.821-5.187 2.149l-1.413 1.413-1.413-1.413c-1.327-1.327-3.161-2.148-5.187-2.148-4.051 0-7.335 3.284-7.335 7.335 0 2.026 0.821 3.859 2.148 5.187l11.787 11.787 11.787-11.787c1.328-1.327 2.149-3.161 2.149-5.187s-0.821-3.859-2.149-5.187l-0-0z"></path>
</symbol>
<symbol id="icon-favorite" viewBox="0 0 32 32">
<path stroke-linejoin="round" stroke-linecap="round" stroke-miterlimit="4" stroke-width="3.0667" d="M27.787 6.147c-1.327-1.328-3.161-2.149-5.187-2.149s-3.859 0.821-5.187 2.149l-1.413 1.413-1.413-1.413c-1.327-1.327-3.161-2.148-5.187-2.148-4.051 0-7.335 3.284-7.335 7.335 0 2.026 0.821 3.859 2.148 5.187l11.787 11.787 11.787-11.787c1.328-1.327 2.149-3.161 2.149-5.187s-0.821-3.859-2.149-5.187l-0-0z"></path>
</symbol>
<symbol id="icon-location" viewBox="0 0 32 32">
<path stroke-linejoin="round" stroke-linecap="round" stroke-miterlimit="4" stroke-width="2.6" d="M28.011 13.339c0 9.336-12.005 17.339-12.005 17.339s-12.005-8.003-12.005-17.339c0-6.63 5.375-12.005 12.005-12.005s12.005 5.375 12.005 12.005v0z"></path>
<path stroke-linejoin="round" stroke-linecap="round" stroke-miterlimit="4" stroke-width="2.6" d="M16.006 17.341c2.21 0 4.002-1.792 4.002-4.002s-1.792-4.002-4.002-4.002v0c-2.21 0-4.002 1.792-4.002 4.002s1.792 4.002 4.002 4.002v0z"></path>
</symbol>
<symbol id="icon-adults" viewBox="0 0 32 32">
<path d="M9.073 24.148h-4.403c-0.267 0-0.4-0.133-0.535-0.266-0.133-0.134-0.266-0.4-0.133-0.668 0.801-2.269 2.802-3.602 5.070-3.602 2.802 0 5.069-2.401 5.069-5.203s-2.267-5.471-5.069-5.471-5.070 2.402-5.070 5.338c0 1.334 0.533 2.667 1.334 3.602-1.734 0.933-3.068 2.401-3.868 4.403-0.081 0.289-0.128 0.62-0.128 0.962 0 0.788 0.247 1.518 0.669 2.117l-0.008-0.012c0.668 0.935 1.601 1.468 2.669 1.468h4.403c0.8 0 1.334-0.533 1.334-1.334s-0.533-1.335-1.334-1.335zM6.671 14.276c0-1.468 1.066-2.536 2.401-2.536 1.334 0 2.402 1.201 2.402 2.536 0 1.467-1.068 2.534-2.402 2.534-1.335 0-2.402-1.201-2.402-2.534z"></path>
<path d="M30.552 21.481c-0.915-2.409-2.66-4.327-4.878-5.444l-0.057-0.026c1.201-1.068 1.868-2.669 1.868-4.536 0-3.469-2.669-6.271-5.871-6.271s-5.871 2.802-5.871 6.271c0 1.734 0.668 3.335 1.868 4.536-2.276 1.143-4.021 3.062-4.913 5.402l-0.023 0.069c-0.668 1.201-0.4 2.534 0.266 3.602 0.668 1.066 1.868 1.601 3.069 1.601h11.074c1.201 0 2.401-0.668 3.068-1.601 0.8-1.068 0.935-2.401 0.4-3.602zM18.279 11.607c0-2.001 1.467-3.602 3.202-3.602 1.734 0 3.202 1.601 3.202 3.602s-1.468 3.602-3.202 3.602c-1.736 0-3.202-1.734-3.202-3.602zM27.885 23.615c-0.134 0.133-0.4 0.533-0.8 0.533h-11.074c-0.533 0-0.8-0.4-0.8-0.533-0.153-0.192-0.246-0.438-0.246-0.706 0-0.18 0.042-0.35 0.116-0.501l-0.003 0.007c1.066-2.802 3.735-4.67 6.537-4.67s5.471 1.868 6.537 4.67c0.134 0.533-0.133 1.068-0.266 1.201z"></path>
</symbol>
<symbol id="icon-petrol" viewBox="0 0 32 32">
<path d="M26.377 9.646l0.013-0.013-4.963-4.963-1.414 1.414 2.815 2.815c-1.267 0.489-2.15 1.697-2.15 3.111 0 0.921 0.374 1.755 0.979 2.357l0 0c0.603 0.603 1.437 0.975 2.357 0.975 0.483 0 0.942-0.103 1.356-0.287l-0.021 0.008v9.62c0 0.737-0.597 1.334-1.334 1.334s-1.334-0.597-1.334-1.334v0-6.004c0-0 0-0.001 0-0.002 0-1.473-1.194-2.667-2.667-2.667-0.001 0-0.001 0-0.002 0h-1.334v-9.339c0-1.474-1.195-2.669-2.669-2.669v0h-8.005c-1.474 0-2.669 1.195-2.669 2.669v0 21.346h13.343v-10.006h2.001v6.671c0 1.842 1.493 3.335 3.335 3.335s3.335-1.493 3.335-3.335v0-12.675c0-0.921-0.373-1.761-0.973-2.361zM16.010 18.011v7.337h-8.005v-9.339h8.005v2.001zM16.010 13.341h-8.005v-6.67h8.005v6.67zM24.015 13.341c-0.737 0-1.334-0.597-1.334-1.334s0.597-1.334 1.334-1.334v0c0.737 0 1.334 0.597 1.334 1.334s-0.597 1.334-1.334 1.334v0z"></path>
</symbol>
<symbol id="icon-kitchen" viewBox="0 0 32 32">
<path stroke-linejoin="round" stroke-linecap="round" stroke-miterlimit="4" stroke-width="2.4" d="M25.349 20.012v-16.010c-6.425 6.129-6.7 11.098-6.67 16.010h6.67zM25.349 20.012v8.005h-1.334v-4.003M10.674 5.336v22.681M6.671 5.336v4.003c0 2.211 1.792 4.003 4.003 4.003s4.002-1.792 4.002-4.003v0-4.003"></path>
</symbol>
<symbol id="icon-beds" viewBox="0 0 32 32">
<path stroke-linejoin="round" stroke-linecap="round" stroke-miterlimit="4" stroke-width="2.24" d="M3.002 26.016v-7.004c0.006-2.208 1.795-3.996 4.002-4.003h18.012c2.208 0.006 3.996 1.795 4.003 4.002v7.005M24.015 15.009h-18.011v-6.505c0.005-1.38 1.122-2.497 2.502-2.501h15.010c1.38 0.005 2.497 1.122 2.501 2.502v6.504h-2.001z"></path>
<path stroke-linejoin="round" stroke-linecap="round" stroke-miterlimit="4" stroke-width="2.24" d="M3.002 26.016v-0.501c0.003-0.828 0.674-1.498 1.502-1.5h23.013c0.829 0.002 1.5 0.673 1.502 1.502v0.5M7.004 15.009v-1.001c0.004-1.104 0.897-1.998 2.001-2.001h5.003c1.104 0.004 1.998 0.897 2.001 2.001v0M16.010 14.009v1.001M16.010 14.009c0.003-1.104 0.897-1.999 2.001-2.001h5.003c1.104 0.004 1.998 0.897 2.001 2.001v1.001"></path>
</symbol>
<symbol id="icon-transmission" viewBox="0 0 32 32">
<path stroke-linejoin="round" stroke-linecap="round" stroke-miterlimit="4" stroke-width="2.4" d="M22.681 14.676h2.001c1.105 0 2.001-0.896 2.001-2.001s-0.896-2.001-2.001-2.001v0h-2.001v6.67M22.681 22.681v5.336h1.334c1.474 0 2.668-1.195 2.668-2.668s-1.195-2.668-2.668-2.668v0h-1.334zM4.003 6.671c-0 0.019-0.001 0.042-0.001 0.065 0 1.474 1.195 2.669 2.669 2.669s2.669-1.195 2.669-2.669c0-0.023-0-0.046-0.001-0.069l0 0.003c-0.037-1.446-1.217-2.604-2.668-2.604s-2.632 1.158-2.668 2.6l-0 0.003z"></path>
<path stroke-linejoin="round" stroke-linecap="round" stroke-miterlimit="4" stroke-width="2.4" d="M6.671 9.339v4.003c0 0 0 0.001 0 0.002 0 0.737 0.597 1.334 1.334 1.334h4.002M12.008 14.676v9.339c0 0.737 0.597 1.334 1.334 1.334v0h4.002M12.008 14.676h5.336"></path>
</symbol>
<symbol id="icon-star" viewBox="0 0 32 32">
<path fill="#ffc531" style="fill: var(--color2, #ffc531); stroke: var(--color2, #ffc531)" stroke="#ffc531" stroke-linejoin="miter" stroke-linecap="butt" stroke-miterlimit="4" stroke-width="2.4" d="M12.405 9.398l3.601-6.825 3.601 6.825c0.318 0.604 0.9 1.024 1.571 1.14l7.603 1.316-5.378 5.534c-0.385 0.396-0.623 0.937-0.623 1.534 0 0.11 0.008 0.219 0.024 0.325l-0.001-0.012 1.1 7.639-6.927-3.405c-0.283-0.142-0.617-0.225-0.97-0.225s-0.687 0.083-0.983 0.231l0.013-0.006-6.927 3.405 1.1-7.639c0.014-0.094 0.022-0.202 0.022-0.313 0-0.597-0.237-1.138-0.623-1.534l0.001 0-5.38-5.534 7.603-1.315c0.687-0.122 1.254-0.548 1.567-1.131l0.006-0.012z"></path>
</symbol>
<symbol id="icon-ac" viewBox="0 0 48 48">
<path d="M16.521 24.395c0 0.787 0.126 1.551 0.346 2.26l-3.212 1.85-5.715-1.527c-1.031-0.275-2.094 0.339-2.377 1.361-0.275 1.032 0.339 2.086 1.378 2.362l4.621 1.236-1.244 4.598c-0.275 1.024 0.339 2.086 1.37 2.362 1.039 0.275 2.102-0.339 2.377-1.368l1.527-5.685 3.362-1.93c0.874 0.795 1.937 1.394 3.11 1.71v4.33l-4.188 3.533c-0.756 0.78-0.756 2.039 0 2.826 0.756 0.78 1.984 0.78 2.74 0l3.385-3.494 3.385 3.494c0.756 0.78 1.984 0.78 2.739 0 0.757-0.787 0.757-2.047 0-2.826l-4.187-3.533v-4.33c1.173-0.315 2.236-0.915 3.109-1.71l3.362 1.93 1.527 5.685c0.275 1.031 1.338 1.644 2.377 1.368 1.032-0.275 1.646-1.338 1.37-2.362l-1.244-4.598 4.621-1.236c1.039-0.275 1.653-1.33 1.378-2.362-0.283-1.023-1.346-1.636-2.377-1.361l-5.717 1.527-3.211-1.85c0.219-0.709 0.346-1.473 0.346-2.26s-0.126-1.551-0.346-2.267l3.211-1.842 5.717 1.527c1.031 0.275 2.094-0.339 2.377-1.362 0.275-1.031-0.339-2.086-1.378-2.362l-4.621-1.236 1.244-4.598c0.276-1.023-0.339-2.086-1.37-2.362-1.039-0.275-2.102 0.339-2.377 1.37l-1.527 5.684-3.362 1.929c-0.874-0.795-1.937-1.394-3.11-1.708v-3.543l4.187-4.322c0.757-0.78 0.757-2.039 0-2.826-0.756-0.78-1.984-0.78-2.739 0l-3.385 3.497-3.385-3.495c-0.756-0.78-1.984-0.78-2.74 0-0.756 0.787-0.756 2.047 0 2.826l4.188 4.322v3.543c-1.173 0.315-2.236 0.913-3.11 1.708l-3.362-1.929-1.527-5.684c-0.275-1.032-1.338-1.645-2.377-1.37-1.031 0.276-1.645 1.338-1.37 2.362l1.244 4.598-4.621 1.236c-1.039 0.275-1.653 1.331-1.378 2.362 0.284 1.023 1.346 1.638 2.377 1.362l5.715-1.527 3.212 1.842c-0.22 0.716-0.346 1.479-0.346 2.266zM24 27.938c-1.96 0-3.543-1.582-3.543-3.543s1.582-3.543 3.543-3.543 3.543 1.582 3.543 3.543c0 1.96-1.583 3.543-3.543 3.543z"></path>
</symbol>
<symbol id="icon-TV" viewBox="0 0 32 32">
<path stroke-linejoin="round" stroke-linecap="round" stroke-miterlimit="4" stroke-width="1.8" d="M24.009 26.010h-16.006c-2.217 0-4.002-1.785-4.002-4.002v-10.004c0-2.217 1.785-4.002 4.002-4.002h16.006c2.217 0 4.002 1.785 4.002 4.002v10.004c0 2.217-1.785 4.002-4.002 4.002zM12.005 30.012h8.003M16.006 8.003l6.002-6.002M16.006 8.003l-6.002-6.002"></path>
</symbol>
<symbol id="icon-Shower" viewBox="0 0 32 32">
<path stroke-linejoin="round" stroke-linecap="round" stroke-miterlimit="4" stroke-width="2" d="M5.335 5.335l3.335 3.335M18.007 8.67c-1.188-1.158-2.814-1.873-4.607-1.873-3.646 0-6.603 2.956-6.603 6.603 0 1.793 0.714 3.418 1.874 4.608l-0.001-0.001M20.008 6.67l-13.338 13.338M18.674 22.676v0.013M13.338 21.341v0.014M17.34 17.34v0.014M21.341 13.338v0.014M14.673 26.677v0.013M22.676 18.674v0.013M26.677 14.673v0.013"></path>
</symbol>
<symbol id="icon-Freezer" viewBox="0 0 32 32">
<path stroke-linejoin="round" stroke-linecap="round" stroke-miterlimit="4" stroke-width="2.0800" d="M23.415 3.002h-14.803c-1.105 0-2.001 0.897-2.001 2.001v20.4c0 1.105 0.897 2.001 2.001 2.001h14.803c1.105 0 2.001-0.897 2.001-2.001v-20.4c0-1.105-0.897-2.001-2.001-2.001z"></path>
<path stroke-linejoin="round" stroke-linecap="round" stroke-miterlimit="4" stroke-width="2.0800" d="M6.612 13.135h18.796M10.32 10.573v-4.041M10.32 19.454v-4.044M8.431 27.404v0.7c0 0 0 0.001 0 0.002 0 0.502 0.406 0.91 0.908 0.913h1.649c0.504 0 0.913-0.409 0.913-0.913v0-0.701M20.113 27.404v0.7c0 0 0 0.001 0 0.002 0 0.504 0.409 0.913 0.913 0.913 0 0 0 0 0 0h1.655c0.504 0 0.913-0.409 0.913-0.913v0-0.701"></path>
</symbol>
<symbol id="icon-Microwave" viewBox="0 0 32 32">
<path stroke-linejoin="round" stroke-linecap="round" stroke-miterlimit="4" stroke-width="2.24" d="M29.732 5.717h-27.443c-0 0-0.001 0-0.002 0-0.631 0-1.143 0.512-1.143 1.143 0 0.001 0 0.001 0 0.002v-0 18.296c0 0 0 0.001 0 0.002 0 0.631 0.512 1.143 1.143 1.143 0.001 0 0.001 0 0.002 0h27.441c0 0 0.001 0 0.002 0 0.631 0 1.143-0.512 1.143-1.143 0-0.001 0-0.001 0-0.002v0-18.296c0-0.632-0.512-1.145-1.145-1.145v0z"></path>
<path stroke-linejoin="round" stroke-linecap="round" stroke-miterlimit="4" stroke-width="2.24" d="M25.158 11.436h1.145M25.158 16.010h1.145M19.441 10.293h-12.579c-0 0-0.001 0-0.002 0-0.631 0-1.143 0.512-1.143 1.143 0 0 0 0 0 0v0 9.148c0.001 0.632 0.513 1.143 1.145 1.143h12.579c0.631 0 1.143-0.512 1.143-1.143v-9.148c0-0.631-0.512-1.143-1.143-1.143v0z"></path>
</symbol>
<symbol id="icon-Gas" viewBox="0 0 32 32">
<path d="M25.088 14.001c-0.368-0.455-0.817-0.849-1.233-1.241-1.073-0.906-2.289-1.558-3.314-2.51-2.386-2.208-2.914-5.852-1.393-8.649-1.521 0.347-2.85 1.133-3.985 1.996-4.147 3.144-5.78 8.693-3.826 13.456 0.064 0.152 0.128 0.304 0.128 0.5 0 0.333-0.24 0.636-0.56 0.756-0.368 0.152-0.752 0.061-1.057-0.181-0.090-0.070-0.165-0.155-0.222-0.252l-0.002-0.004c-1.809-2.163-2.097-5.262-0.881-7.742-2.672 2.056-4.129 5.535-3.921 8.815 0.096 0.756 0.192 1.513 0.464 2.269 0.224 0.906 0.656 1.814 1.137 2.616 1.729 2.616 4.723 4.491 7.941 4.867 3.425 0.41 7.089-0.179 9.715-2.418 2.93-2.51 3.954-6.532 2.45-9.981l-0.208-0.392c-0.336-0.696-1.233-1.905-1.233-1.905zM20.029 23.527c-0.448 0.362-1.185 0.756-1.761 0.906-1.793 0.605-3.585-0.24-4.641-1.239 1.905-0.423 3.042-1.753 3.378-3.1 0.272-1.21-0.24-2.208-0.448-3.372-0.192-1.121-0.16-2.072 0.272-3.116 0.304 0.575 0.624 1.15 1.009 1.603 1.233 1.513 3.17 2.177 3.586 4.235 0.064 0.211 0.096 0.423 0.096 0.65 0.048 1.239-0.528 2.6-1.489 3.433z"></path>
</symbol>
<symbol id="icon-Water" viewBox="0 0 32 32">
<path stroke-linejoin="miter" stroke-linecap="butt" stroke-miterlimit="10" stroke-width="2.4" d="M25.016 20.012c0 5.527-3.479 9.006-9.006 9.006s-9.006-3.479-9.006-9.006c0-5.93 6.455-13.937 8.437-16.253 0.139-0.16 0.342-0.261 0.569-0.261s0.431 0.101 0.568 0.26l0.001 0.001c1.98 2.317 8.436 10.323 8.436 16.253z"></path>
<path stroke-linejoin="round" stroke-linecap="round" stroke-miterlimit="4" stroke-width="2.4" d="M21.514 20.514c0 2.486-2.016 4.502-4.502 4.502-0.001 0-0.001 0-0.002 0h0"></path>
</symbol>
<symbol id="icon-CD" viewBox="0 0 32 32">
<path stroke-linejoin="miter" stroke-linecap="butt" stroke-miterlimit="4" stroke-width="2.4" d="M16.010 28.017c6.632 0 12.008-5.376 12.008-12.008s-5.376-12.008-12.008-12.008v0c-6.632 0-12.008 5.376-12.008 12.008s5.376 12.008 12.008 12.008v0z"></path>
<path stroke-linejoin="miter" stroke-linecap="round" stroke-miterlimit="4" stroke-width="2.4" d="M8.673 16.010c0-4.052 3.285-7.337 7.337-7.337v0"></path>
<path stroke-linejoin="miter" stroke-linecap="butt" stroke-miterlimit="4" stroke-width="2.4" d="M16.010 19.345c1.842 0 3.335-1.493 3.335-3.335s-1.493-3.335-3.335-3.335v0c-1.842 0-3.335 1.493-3.335 3.335s1.493 3.335 3.335 3.335v0z"></path>
</symbol>
</defs>
</svg>
