<svg xmlns="http://www.w3.org/2000/svg" viewBox="0 0 128 128">
  <path fill="#ffdd09" d="M109.08 37.79H7.29v-7a5 5 0 0 1 5-5h89.35a7.44 7.44 0 0 1 7.44 7.43Z"/>
  <path fill="#fff6b5" d="M120.71 64.53v21.15a5 5 0 0 1-5 5H12.29a5 5 0 0 1-5-5V37.79H95l4 8 6.76 13.7h10a5 5 0 0 1 4.95 5.04Z"/>
  <path fill="#fdaf1a" d="M120.71 80.73v5a5 5 0 0 1-5 5H12.29a5 5 0 0 1-5-5v-5Z"/>
  <circle cx="28.42" cy="90.72" r="11.49" fill="#515559"/>
  <path fill="#7a7f87" d="M28.42 95.21a4.49 4.49 0 1 1 4.49-4.49 4.49 4.49 0 0 1-4.49 4.49Z"/>
  <circle cx="95.57" cy="90.72" r="11.49" fill="#515559"/>
  <path fill="#7a7f87" d="M95.57 95.21a4.49 4.49 0 1 1 4.49-4.49 4.49 4.49 0 0 1-4.49 4.49Z"/>
  <path fill="#59dcfd" d="M105.67 59.53H84.46a3 3 0 0 1-3-3v-7.7a3 3 0 0 1 3-3h14.45Z"/>
  <path fill="#e39707" d="M58.86 45.76h12a3 3 0 0 1 3 3v31.9h-18v-31.9a3 3 0 0 1 3-3Z"/>
  <path fill="#59dcfd" d="M33.66 45.83h13.7v13.7h-13.7zM12.86 45.83h13.7v13.7h-13.7z"/>
  <path fill="#3e1075" d="M41 27.29h23a1.5 1.5 0 0 0 0-3H41a1.5 1.5 0 0 0 0 3zm-14.07 0h5a1.5 1.5 0 0 0 0-3h-5a1.5 1.5 0 0 0 0 3z"/>
  <path fill="#3e1075" d="M108.47 92.18h7.24a6.51 6.51 0 0 0 6.5-6.5V64.53a6.51 6.51 0 0 0-6.5-6.5h-9.11c-12.66-25.68-8.3-16.82-9.24-18.74h11.72a1.5 1.5 0 0 0 1.5-1.5v-4.57a9 9 0 0 0-8.94-8.93H73.08a1.5 1.5 0 0 0 0 3h28.56a5.94 5.94 0 0 1 5.94 5.93v3.07H8.79v-5.5a3.5 3.5 0 0 1 3.5-3.5h5.53a1.5 1.5 0 0 0 0-3h-5.53a6.51 6.51 0 0 0-6.5 6.5v54.89a6.51 6.51 0 0 0 6.5 6.5h3.23a13 13 0 0 0 4.61 8.53H7.29a1.5 1.5 0 0 0 0 3h113.42a1.5 1.5 0 0 0 0-3h-16.86a13 13 0 0 0 4.62-8.53Zm10.74-6.5a3.5 3.5 0 0 1-3.5 3.5h-7.25a13 13 0 0 0-3.07-7h13.82ZM98 47.33c.54 1.09-2-4 5.28 10.7H84.46a1.5 1.5 0 0 1-1.5-1.5v-7.7a1.5 1.5 0 0 1 1.5-1.5Zm-89.19-8H94l2.48 5h-12a4.51 4.51 0 0 0-4.5 4.5v7.7a4.51 4.51 0 0 0 4.5 4.5h31.25a3.5 3.5 0 0 1 3.5 3.5v14.7h-17.65a13.18 13.18 0 0 0-12 0H75.4V48.76a4.5 4.5 0 0 0-4.5-4.5h-12a4.51 4.51 0 0 0-4.5 4.5v30.47H34.42a13.21 13.21 0 0 0-12 0H8.79Zm77 42.94a13.05 13.05 0 0 0-3.07 7H41.3a13 13 0 0 0-3.07-7Zm-28.4-3.07V48.76a1.51 1.51 0 0 1 1.5-1.5h12a1.5 1.5 0 0 1 1.5 1.5v30.4Zm-45.07 10a3.5 3.5 0 0 1-3.5-3.5v-3.47h9.76a13.05 13.05 0 0 0-3.07 7Zm16.13 11.53a10 10 0 1 1 10-10 10 10 0 0 1-10.05 9.98Zm8.28 0a13 13 0 0 0 4.61-8.53h41.32a12.93 12.93 0 0 0 4.61 8.53Zm58.87 0a10 10 0 1 1 10-10 10 10 0 0 1-10.05 9.98Z"/>
  <path fill="#3e1075" d="M28.42 84.73a6 6 0 1 0 6 6 6 6 0 0 0-6-6zm0 9a3 3 0 1 1 3-3 3 3 0 0 1-3 2.98zm67.15-9a6 6 0 1 0 6 6 6 6 0 0 0-6-6zm0 9a3 3 0 1 1 3-3 3 3 0 0 1-3 2.98zm-48.21-49.4h-13.7a1.5 1.5 0 0 0-1.5 1.5v13.7a1.5 1.5 0 0 0 1.5 1.5h13.7a1.5 1.5 0 0 0 1.5-1.5v-13.7a1.5 1.5 0 0 0-1.5-1.5zM45.86 58h-10.7V47.33h10.7zm-19.3-13.67h-13.7a1.5 1.5 0 0 0-1.5 1.5v13.7a1.5 1.5 0 0 0 1.5 1.5h13.7a1.5 1.5 0 0 0 1.5-1.5v-13.7a1.5 1.5 0 0 0-1.5-1.5zM25.06 58h-10.7V47.33h10.7z"/>
</svg>
